{
  "accessors": [
    {
      "bufferView": 2,
      "componentType": 5126,
      "count": 88,
      "max": [
        2.3560001850128174,
        10.311429023742676,
        0.34755289554595947
      ],
      "min": [
        -2.3558251857757568,
        1.2213431596755981,
        -0.34755286574363708
      ],
      "type": "VEC3"
    },
    {
      "bufferView": 2,
      "byteOffset": 1056,
      "componentType": 5126,
      "count": 88,
      "max": [
        1,
        0,
        0.95105677843093872
      ],
      "min": [
        -1,
        -8.6959337508574208e-09,
        -0.95105659961700439
      ],
      "type": "VEC3"
    },
    {
      "bufferView": 3,
      "componentType": 5126,
      "count": 88,
      "max": [
        5.5618084360276043e-08,
        1,
        5.7919599782962905e-08,
        1
      ],
      "min": [
        -5.6486967991986603e-08,
        1,
        -5.7920328089267059e-08,
        1
      ],
      "type": "VEC4"
    },
    {
      "bufferView": 1,
      "componentType": 5126,
      "count": 88,
      "max": [
        0.98663949966430664,
        0.9629860520362854
      ],
      "min": [
        0.0079263448715209961,
        0.92971444129943848
      ],
      "type": "VEC2"
    },
    {
      "bufferView": 0,
      "componentType": 5125,
      "count": 240,
      "max": [
        87
      ],
      "min": [
        0
      ],
      "type": "SCALAR"
    },
    {
      "bufferView": 2,
      "byteOffset": 2112,
      "componentType": 5126,
      "count": 54,
      "max": [
        2.6017780303955078,
        1.2948435544967651,
        0.5
      ],
      "min": [
        -2.6017780303955078,
        -1.2948435544967651,
        -0.5
      ],
      "type": "VEC3"
    },
    {
      "bufferView": 2,
      "byteOffset": 2760,
      "componentType": 5126,
      "count": 54,
      "max": [
        0.99987757205963135,
        0.99997174739837646,
        1
      ],
      "min": [
        -0.99987757205963135,
        -0.99997174739837646,
        -1
      ],
      "type": "VEC3"
    },
    {
      "bufferView": 3,
      "byteOffset": 1408,
      "componentType": 5126,
      "count": 54,
      "max": [
        0.70710647106170654,
        1,
        1,
        1
      ],
      "min": [
        -0.69724762439727783,
        -1,
        -1,
        1
      ],
      "type": "VEC4"
    },
    {
      "bufferView": 1,
      "byteOffset": 704,
      "componentType": 5126,
      "count": 54,
      "max": [
        0.87632179260253906,
        0.87923240661621094
      ],
      "min": [
        0.0004995006020180881,
        0.0004393964190967381
      ],
      "type": "VEC2"
    },
    {
      "bufferView": 0,
      "byteOffset": 960,
      "componentType": 5125,
      "count": 144,
      "max": [
        53
      ],
      "min": [
        0
      ],
      "type": "SCALAR"
    }
  ],
  "asset": {
    "extras": {
      "author": "Cody Anderson (https://sketchfab.com/rp7000)",
      "license": "CC-BY-4.0 (http://creativecommons.org/licenses/by/4.0/)",
      "source": "https://sketchfab.com/models/439d512e33ae4feabf75b47f47a6ec7a",
      "title": "Exit Sign - FREE Background Prop"
    },
    "generator": "Sketchfab-4.12.0",
    "version": "2.0"
  },
  "bufferViews": [
    {
      "buffer": 0,
      "byteLength": 1536,
      "byteOffset": 0,
      "name": "floatBufferViews",
      "target": 34963
    },
    {
      "buffer": 0,
      "byteLength": 1136,
      "byteOffset": 1536,
      "byteStride": 8,
      "name": "floatBufferViews",
      "target": 34962
    },
    {
      "buffer": 0,
      "byteLength": 3408,
      "byteOffset": 2672,
      "byteStride": 12,
      "name": "floatBufferViews",
      "target": 34962
    },
    {
      "buffer": 0,
      "byteLength": 2272,
      "byteOffset": 6080,
      "byteStride": 16,
      "name": "floatBufferViews",
      "target": 34962
    }
  ],
  "buffers": [
    {
      "byteLength": 8352,
      "uri": "scene.bin"
    }
  ],
  "images": [
    {
      "uri": "textures/lambert1_normal.png"
    },
    {
      "uri": "textures/lambert1_emissive.png"
    },
    {
      "uri": "textures/lambert1_baseColor.png"
    }
  ],
  "materials": [
    {
      "doubleSided": true,
      "emissiveFactor": [
        1,
        1,
        1
      ],
      "emissiveTexture": {
        "index": 1,
        "texCoord": 0
      },
      "name": "lambert1",
      "normalTexture": {
        "index": 0,
        "scale": 1,
        "texCoord": 0
      },
      "pbrMetallicRoughness": {
        "baseColorFactor": [
          1,
          1,
          1,
          1
        ],
        "baseColorTexture": {
          "index": 2,
          "texCoord": 0
        },
        "metallicFactor": 0.17244664630000001,
        "roughnessFactor": 0.68464176830000001
      }
    }
  ],
  "meshes": [
    {
      "name": "Cables_lambert1_0",
      "primitives": [
        {
          "attributes": {
            "NORMAL": 1,
            "POSITION": 0,
            "TANGENT": 2,
            "TEXCOORD_0": 3
          },
          "indices": 4,
          "material": 0,
          "mode": 4
        }
      ]
    },
    {
      "name": "Sign_lambert1_0",
      "primitives": [
        {
          "attributes": {
            "NORMAL": 6,
            "POSITION": 5,
            "TANGENT": 7,
            "TEXCOORD_0": 8
          },
          "indices": 9,
          "material": 0,
          "mode": 4
        }
      ]
    }
  ],
  "nodes": [
    {
      "children": [
        1
      ],
      "name": "RootNode (gltf orientation matrix)",
      "rotation": [
        -0.70710678118654746,
        -0,
        -0,
        0.70710678118654757
      ]
    },
    {
      "children": [
        2
      ],
      "matrix": [
        0,
        -1,
        0,
        0,
        1,
        0,
        0,
        0,
        0,
        0,
        1,
        0,
        -1.817900056266808e-06,
        -2.235200099676149e-06,
        0,
        1
      ],
      "name": "RootNode (model correction matrix)"
    },
    {
      "children": [
        3
      ],
      "matrix": [
        1,
        0,
        0,
        0,
        0,
        0,
        1,
        0,
        0,
        -1,
        0,
        0,
        0,
        0,
        0,
        1
      ],
      "name": "f51c5b26368942cead075bb65b98d238.fbx"
    },
    {
      "children": [
        4
      ],
      "name": "RootNode"
    },
    {
      "children": [
        5,
        7
      ],
      "name": "ExitSign2"
    },
    {
      "children": [
        6
      ],
      "name": "Cables"
    },
    {
      "mesh": 0,
      "name": "Cables_lambert1_0"
    },
    {
      "children": [
        8
      ],
      "name": "Sign"
    },
    {
      "mesh": 1,
      "name": "Sign_lambert1_0"
    }
  ],
  "samplers": [
    {
      "magFilter": 9729,
      "minFilter": 9987,
      "wrapS": 10497,
      "wrapT": 10497
    }
  ],
  "scene": 0,
  "scenes": [
    {
      "name": "OSG_Scene",
      "nodes": [
        0
      ]
    }
  ],
  "textures": [
    {
      "sampler": 0,
      "source": 0
    },
    {
      "sampler": 0,
      "source": 1
    },
    {
      "sampler": 0,
      "source": 2
    }
  ]
}

